<svg xmlns="http://www.w3.org/2000/svg" viewBox="0 0 48 48" role="img" aria-hidden="true">
  <path d="M12 5h16l8 8v28a2 2 0 0 1-2 2H12a2 2 0 0 1-2-2V7a2 2 0 0 1 2-2z" fill="#ffffff" stroke="#2955c8" stroke-width="1.5"/>
  <path d="M28 5v8h8" fill="#e5edff"/>
  <path d="M28 5v8h8" stroke="#2955c8" stroke-width="1.5" stroke-linejoin="round"/>
  <rect x="11" y="26.5" width="26" height="12" rx="3" fill="#2955c8"/>
  <path d="M16 30l1.4 4 1.2-2.8 1.2 2.8 1.4-4M24 34v-4h3.1M24 32h2.5M31 30h-3v4h3" stroke="#fff" stroke-width="1.7" stroke-linecap="round" stroke-linejoin="round"/>
</svg>
