<svg xmlns="http://www.w3.org/2000/svg" viewBox="0 0 48 48" role="img" aria-hidden="true">
  <defs>
    <linearGradient id="folderBody" x1="0" y1="0" x2="0" y2="1">
      <stop offset="0%" stop-color="#f6cf74"/>
      <stop offset="100%" stop-color="#d8a93f"/>
    </linearGradient>
  </defs>
  <path d="M5 15.5C5 13.6 6.6 12 8.5 12h10.1l3 3.3h18.2c1.9 0 3.5 1.6 3.5 3.5v14.7c0 2.5-2 4.5-4.5 4.5H9.5C7 38 5 36 5 33.5z" fill="url(#folderBody)" stroke="#b5811a" stroke-width="1.5"/>
  <path d="M5 18.4c0-1.7 1.4-3.1 3.1-3.1h31.8c1.7 0 3.1 1.4 3.1 3.1v2H5z" fill="#ffe39b"/>
  <path d="M9.4 12h9.2l2.2 2.4H7.5c0-1.3.6-2.4 1.9-2.4z" fill="#f2c45f"/>
</svg>
