<svg xmlns="http://www.w3.org/2000/svg" viewBox="0 0 512 512" role="img" aria-labelledby="title desc">
  <title id="title">OneDrive Slozky</title>
  <desc id="desc">Ikona slozky se zvezdickou.</desc>
  <defs>
    <linearGradient id="bg" x1="0" x2="1" y1="0" y2="1">
      <stop offset="0%" stop-color="#175e57"/>
      <stop offset="100%" stop-color="#0f3e3b"/>
    </linearGradient>
    <linearGradient id="folder" x1="0" x2="1" y1="0" y2="1">
      <stop offset="0%" stop-color="#ffe0a0"/>
      <stop offset="100%" stop-color="#f5bb62"/>
    </linearGradient>
  </defs>
  <rect width="512" height="512" rx="124" fill="url(#bg)"/>
  <path d="M116 168c0-16 13-29 29-29h92l31 35h100c16 0 29 13 29 29v137c0 18-15 33-33 33H128c-18 0-33-15-33-33V168z" fill="url(#folder)"/>
  <path d="M112 214c0-18 15-33 33-33h224c18 0 33 15 33 33v27H112v-27z" fill="#ffd484"/>
  <path d="M258 241l17 34 38 6-27 26 6 37-34-18-34 18 6-37-27-26 38-6 17-34z" fill="#185f58"/>
</svg>
